<svg xmlns="http://www.w3.org/2000/svg" version="1.1" xmlns:xlink="http://www.w3.org/1999/xlink" xmlns:svgjs="http://svgjs.dev/svgjs" width="1000" height="131" viewBox="0 0 1000 131"><g transform="matrix(1,0,0,1,-0.6060397871776786,-0.11675015404748024)"><svg viewBox="0 0 396 52" data-background-color="#ffa96a" preserveAspectRatio="xMidYMid meet" height="131" width="1000" xmlns="http://www.w3.org/2000/svg" xmlns:xlink="http://www.w3.org/1999/xlink"><g id="tight-bounds" transform="matrix(1,0,0,1,0.23999175572237164,0.0463437350905167)"><svg viewBox="0 0 395.52 51.907309191356894" height="51.907309191356894" width="395.52"><g><svg viewBox="0 0 485.6555606023945 63.73653252601703" height="51.907309191356894" width="395.52"><g transform="matrix(1,0,0,1,90.1355606023945,8.808739299905394)"><svg viewBox="0 0 395.52 46.11905392620624" height="46.11905392620624" width="395.52"><g><svg viewBox="0 0 395.52 46.11905392620624" height="46.11905392620624" width="395.52"><g><svg viewBox="0 0 395.52 46.11905392620624" height="46.11905392620624" width="395.52"><g transform="matrix(1,0,0,1,0,0)"><svg width="395.52" viewBox="0.9800000190734863 -35.45000076293945 309.6399841308594 36.11000061035156" height="46.11905392620624" data-palette-color="#000000"><path d="M25.81 0L1.17 0Q0.98 0 0.98-0.2L0.98-0.2 0.98-0.78Q0.98-0.98 1.17-0.98L1.17-0.98 1.76-0.98Q3.86-0.98 5.42-1.86L5.42-1.86Q6.05-2.22 6.47-2.99 6.88-3.76 6.88-4.71L6.88-4.71 6.88-30.54Q6.88-32.06 4.93-32.86L4.93-32.86Q3.56-33.45 2.03-33.45L2.03-33.45 1.49-33.45Q1.29-33.45 1.29-33.64L1.29-33.64 1.29-34.23Q1.29-34.42 1.49-34.42L1.49-34.42 18.02-34.42Q18.21-34.42 18.21-34.23L18.21-34.23 18.21-33.64Q18.21-33.45 18.02-33.45L18.02-33.45 16.97-33.45Q14.45-33.45 12.52-32.74L12.52-32.74Q11.96-32.54 11.8-32.09 11.65-31.64 11.65-30.54L11.65-30.54 11.65-3.47Q11.69-3.05 12.08-2.69 12.48-2.32 12.96-2.32L12.96-2.32 22.61-2.32Q24.78-2.32 26.88-4.88L26.88-4.88Q27.44-5.57 28.27-6.7 29.1-7.84 29.3-7.98L29.3-7.98Q30.08-8.57 30.08-7.96L30.08-7.96Q30.08-7.81 30-7.67L30-7.67 26.32-0.44Q26.1 0 25.81 0L25.81 0ZM36.4-4.47L36.4-30.52Q36.4-33.45 33.03-33.45L33.03-33.45Q32.49-33.45 32.49-33.64L32.49-33.64 32.49-34.23Q32.49-34.42 32.69-34.42L32.69-34.42 44.92-34.42Q45.11-34.42 45.11-34.23L45.11-34.23 45.11-33.64Q45.11-33.45 44.04-33.45 42.97-33.45 42.06-32.76 41.16-32.08 41.16-29.96L41.16-29.96 41.16-3.91Q41.16-0.98 44.55-0.98L44.55-0.98Q45.07-0.98 45.07-0.78L45.07-0.78 45.07-0.2Q45.07 0 44.87 0L44.87 0 32.64 0Q32.44 0 32.44-0.2L32.44-0.2 32.44-0.78Q32.44-0.98 33.52-0.98 34.59-0.98 35.5-1.66 36.4-2.34 36.4-4.47L36.4-4.47ZM83.52-8.35L80.15-0.93Q80.02-0.73 79.55-0.84 79.07-0.95 78.44-0.95 77.8-0.95 76.64-0.7 75.48-0.44 72.99 0.11 70.5 0.66 68.45 0.66L68.45 0.66Q63.81 0.66 59.46-1.53 55.1-3.71 52.49-7.73 49.87-11.74 49.87-17.04 49.87-22.34 52.49-26.64L52.49-26.64Q56.29-32.93 63.96-34.84L63.96-34.84Q66.4-35.45 68.84-35.45L68.84-35.45Q72.19-35.45 76.78-34.33L76.78-34.33Q78.17-33.98 79.13-33.62 80.1-33.25 80.32-33.25L80.32-33.25 81.05-33.45 81.81-33.45Q82.1-33.45 82.1-33.03L82.1-33.03 82.1-25.44Q82.1-25.2 81.66-25.2 81.22-25.2 81.15-25.31 81.07-25.42 81-25.57 80.93-25.73 80.84-25.9 80.76-26.07 80.67-26.22 80.59-26.37 80.56-26.44L80.56-26.44Q76.9-33.79 69.45-33.79L69.45-33.79Q62.74-33.79 58.95-29.52 55.17-25.24 55.17-18.2 55.17-11.16 59.33-6.1 63.5-1.05 70.65-1.05L70.65-1.05Q74.56-1.05 77.77-3.37 80.98-5.69 82.81-9.06L82.81-9.06Q82.86-9.2 83.1-9.2L83.1-9.2 83.42-9.2Q83.66-9.2 83.66-8.91 83.66-8.62 83.52-8.35L83.52-8.35ZM85.71-0.2L85.71-0.2 85.71-0.88Q85.71-1.07 85.91-1.07L85.91-1.07 86.44-1.07Q87.47-1.15 88.54-1.16 89.62-1.17 90.5-1.42L90.5-1.42Q92.5-2 92.5-4.35L92.5-4.35 92.5-30.08Q92.5-32.5 89.64-33.15L89.64-33.15Q88.84-33.33 88.01-33.45L88.01-33.45 87.49-33.45Q87.3-33.45 87.3-33.64L87.3-33.64 87.3-34.23Q87.3-34.42 87.49-34.42L87.49-34.42 110.71-34.42Q111.15-34.42 111.35-34.27 111.54-34.11 111.59-33.57L111.59-33.57 112.03-26.49Q112.03-26.25 111.66-26.25 111.3-26.25 111.13-26.46L111.13-26.46Q110.98-26.71 110.75-28.25 110.51-29.79 109.9-30.81 109.29-31.84 107.76-32.1L107.76-32.1 97.58-32.1Q97.26-32.1 97.26-31.79L97.26-31.79 97.26-19.17Q97.26-18.92 97.5-18.92L97.5-18.92 105.95-18.92Q109.22-18.92 109.22-22.73L109.22-22.73Q109.22-22.92 109.42-22.92L109.42-22.92 110-22.92Q110.2-22.92 110.2-22.73L110.2-22.73 110.2-12.28Q110.2-12.08 110-12.08L110-12.08 109.42-12.08Q109.22-12.08 109.22-12.28L109.22-12.28Q109.22-15.89 107.12-16.46L107.12-16.46Q106.54-16.6 105.88-16.6L105.88-16.6 97.5-16.6Q97.26-16.6 97.26-16.36L97.26-16.36 97.26-4.47Q97.26-2.64 98.94-2.39L98.94-2.39Q99.43-2.32 99.97-2.32L99.97-2.32 108.1-2.32Q110.61-2.32 112-4.54L112-4.54Q113.01-6.13 113.22-8.18L113.22-8.18Q113.3-8.86 113.96-8.86L113.96-8.86Q114.25-8.86 114.25-8.54L114.25-8.54 113.44-0.34Q113.3 0 113.1 0L113.1 0 85.91 0Q85.71 0 85.71-0.2ZM130.75 0L118.06 0Q117.86 0 117.86-0.2L117.86-0.2 117.86-0.78Q117.86-0.98 118.11-0.98L118.11-0.98 118.67-0.98Q120.01-0.98 120.5-1.22L120.5-1.22Q122.3-2.1 122.3-6.05L122.3-6.05 122.3-31.42Q122.3-33.06 119.13-33.37L119.13-33.37Q118.42-33.45 118.14-33.45 117.86-33.45 117.86-33.64L117.86-33.64 117.86-34.23Q117.86-34.42 118.06-34.42L118.06-34.42 126.99-34.42 150.16-8.81Q150.28-8.69 150.33-8.63 150.38-8.57 150.49-8.57 150.6-8.57 150.6-8.79L150.6-8.79 150.6-25.61Q150.6-30.47 149.79-31.96 148.99-33.45 146.55-33.45L146.55-33.45 145.3-33.45Q145.11-33.45 145.11-33.64L145.11-33.64 145.11-34.23Q145.11-34.42 145.3-34.42L145.3-34.42 158-34.42Q158.19-34.42 158.19-34.23L158.19-34.23 158.19-33.64Q158.19-33.45 157.47-33.45 156.75-33.45 155.1-32.62 153.46-31.79 153.46-30.57L153.46-30.57 153.46-0.71Q153.46-0.17 153.31 0.06 153.16 0.29 152.61 0.29 152.07 0.29 151.8 0.07 151.53-0.15 151.16-0.56L151.16-0.56 125.99-28.47Q125.75-28.71 125.55-28.71L125.55-28.71Q125.43-28.71 125.43-28.47L125.43-28.47 125.43-4.1Q125.43-1.88 128.95-1.17L128.95-1.17Q129.92-0.98 130.43-0.98 130.95-0.98 130.95-0.78L130.95-0.78 130.95-0.2Q130.95 0 130.75 0L130.75 0ZM173.4 0L160.71 0Q160.51 0 160.51-0.2L160.51-0.2 160.51-0.78Q160.51-0.98 160.75-0.98L160.75-0.98 161.32-0.98Q162.66-0.98 163.15-1.22L163.15-1.22Q164.95-2.1 164.95-6.05L164.95-6.05 164.95-31.42Q164.95-33.06 161.78-33.37L161.78-33.37Q161.07-33.45 160.79-33.45 160.51-33.45 160.51-33.64L160.51-33.64 160.51-34.23Q160.51-34.42 160.71-34.42L160.71-34.42 169.64-34.42 192.81-8.81Q192.93-8.69 192.98-8.63 193.03-8.57 193.14-8.57 193.25-8.57 193.25-8.79L193.25-8.79 193.25-25.61Q193.25-30.47 192.44-31.96 191.64-33.45 189.2-33.45L189.2-33.45 187.95-33.45Q187.76-33.45 187.76-33.64L187.76-33.64 187.76-34.23Q187.76-34.42 187.95-34.42L187.95-34.42 200.65-34.42Q200.84-34.42 200.84-34.23L200.84-34.23 200.84-33.64Q200.84-33.45 200.12-33.45 199.4-33.45 197.75-32.62 196.11-31.79 196.11-30.57L196.11-30.57 196.11-0.71Q196.11-0.17 195.96 0.06 195.81 0.29 195.26 0.29 194.71 0.29 194.45 0.07 194.18-0.15 193.81-0.56L193.81-0.56 168.64-28.47Q168.4-28.71 168.2-28.71L168.2-28.71Q168.08-28.71 168.08-28.47L168.08-28.47 168.08-4.1Q168.08-1.88 171.59-1.17L171.59-1.17Q172.57-0.98 173.08-0.98 173.6-0.98 173.6-0.78L173.6-0.78 173.6-0.2Q173.6 0 173.4 0L173.4 0ZM201.86-0.2L201.86-0.2 201.86-0.88Q201.86-1.07 202.06-1.07L202.06-1.07 202.6-1.07Q203.62-1.15 204.7-1.16 205.77-1.17 206.65-1.42L206.65-1.42Q208.65-2 208.65-4.35L208.65-4.35 208.65-30.08Q208.65-32.5 205.8-33.15L205.8-33.15Q204.99-33.33 204.16-33.45L204.16-33.45 203.65-33.45Q203.45-33.45 203.45-33.64L203.45-33.64 203.45-34.23Q203.45-34.42 203.65-34.42L203.65-34.42 226.86-34.42Q227.3-34.42 227.5-34.27 227.69-34.11 227.74-33.57L227.74-33.57 228.18-26.49Q228.18-26.25 227.82-26.25 227.45-26.25 227.28-26.46L227.28-26.46Q227.13-26.71 226.9-28.25 226.67-29.79 226.06-30.81 225.45-31.84 223.91-32.1L223.91-32.1 213.73-32.1Q213.41-32.1 213.41-31.79L213.41-31.79 213.41-19.17Q213.41-18.92 213.66-18.92L213.66-18.92 222.1-18.92Q225.38-18.92 225.38-22.73L225.38-22.73Q225.38-22.92 225.57-22.92L225.57-22.92 226.16-22.92Q226.35-22.92 226.35-22.73L226.35-22.73 226.35-12.28Q226.35-12.08 226.16-12.08L226.16-12.08 225.57-12.08Q225.38-12.08 225.38-12.28L225.38-12.28Q225.38-15.89 223.28-16.46L223.28-16.46Q222.69-16.6 222.03-16.6L222.03-16.6 213.66-16.6Q213.41-16.6 213.41-16.36L213.41-16.36 213.41-4.47Q213.41-2.64 215.1-2.39L215.1-2.39Q215.59-2.32 216.12-2.32L216.12-2.32 224.25-2.32Q226.77-2.32 228.16-4.54L228.16-4.54Q229.16-6.13 229.38-8.18L229.38-8.18Q229.45-8.86 230.11-8.86L230.11-8.86Q230.4-8.86 230.4-8.54L230.4-8.54 229.6-0.34Q229.45 0 229.26 0L229.26 0 202.06 0Q201.86 0 201.86-0.2ZM246.47-33.45L246.03-33.45Q243.1-33.45 243.1-31.2L243.1-31.2Q243.1-30.79 243.26-30.32 243.42-29.86 243.54-29.35L243.54-29.35 252.89-6.84Q253.01-6.59 253.28-6.59 253.55-6.59 253.72-6.86L253.72-6.86 259.11-19.56 254.35-31.05Q253.91-32.15 250.69-33.15L250.69-33.15Q249.74-33.45 249.46-33.45 249.18-33.45 249.18-33.64L249.18-33.64 249.18-34.23Q249.18-34.42 249.37-34.42L249.37-34.42 271.74-34.42Q271.93-34.42 271.93-34.23L271.93-34.23 271.93-33.64Q271.93-33.45 271.74-33.45L271.74-33.45 270.83-33.45Q268.49-33.45 267.27-31.15L267.27-31.15Q266.85-30.37 266.41-29.32L266.41-29.32 263.24-21.88 269.49-6.84Q269.61-6.59 269.88-6.59 270.15-6.59 270.32-6.86L270.32-6.86 280.65-31.15Q280.94-31.84 280.94-32.37L280.94-32.37Q280.94-33.45 278.13-33.45L278.13-33.45 276.62-33.45Q276.42-33.45 276.42-33.64L276.42-33.64 276.42-34.23Q276.42-34.42 276.62-34.42L276.62-34.42 287.48-34.42Q287.68-34.42 287.68-34.23L287.68-34.23 287.68-33.64Q287.68-33.45 287.48-33.45L287.48-33.45 286.34-33.45Q285.26-33.45 284.71-32.7 284.16-31.96 283.16-29.66L283.16-29.66 270.61-0.2Q270.34 0.39 270.05 0.52 269.76 0.66 269.2 0.66L269.2 0.66 268.05 0.66Q267.46 0.66 267.27 0.12L267.27 0.12 260.68-15.84 254.01-0.2Q253.74 0.39 253.45 0.52 253.16 0.66 252.59 0.66L252.59 0.66 251.45 0.66Q250.86 0.66 250.69 0.1L250.69 0.1 237.75-31.05Q237.36-32.01 235.33-32.73 233.31-33.45 232.83-33.45 232.36-33.45 232.36-33.64L232.36-33.64 232.36-34.23Q232.36-34.42 232.55-34.42L232.55-34.42 246.47-34.42Q246.66-34.42 246.66-34.23L246.66-34.23 246.66-33.64Q246.66-33.45 246.47-33.45L246.47-33.45ZM264.34-32.3L264.34-32.3Q264.34-33.33 262.24-33.42L262.24-33.42Q260.11-33.3 259.8-31.93L259.8-31.93Q259.7-31.59 259.7-31.19 259.7-30.79 259.86-30.32 260.02-29.86 260.14-29.35L260.14-29.35 261.68-25.61 264.05-31.15Q264.34-31.84 264.34-32.3ZM307.01-33.96L308.38-34.13Q308.62-34.13 308.62-33.59L308.62-33.59 309.26-28.39Q309.36-27.91 309.36-27.77 309.36-27.64 308.98-27.64 308.6-27.64 308.5-27.73 308.4-27.83 308.31-28.06 308.21-28.3 308.07-28.59 307.94-28.88 307.79-29.17L307.79-29.17Q307.28-30.3 306.18-31.4L306.18-31.4Q303.5-33.98 300.13-33.98L300.13-33.98Q298.1-33.98 296.29-32.67 294.49-31.35 294.49-29.55 294.49-27.76 295.16-26.44 295.83-25.12 296.93-24 298.03-22.88 299.44-21.85 300.86-20.83 302.32-19.78L302.32-19.78Q306.21-17.07 307.84-15.14L307.84-15.14Q310.4-12.16 310.62-8.45L310.62-8.45Q310.62-4.3 307.44-1.82 304.25 0.66 300.03 0.66L300.03 0.66Q297.32 0.66 295.72 0.11 294.12-0.44 293.51-0.68 292.9-0.93 292.62-0.93 292.34-0.93 292.27-0.9L292.27-0.9 291.07-0.66Q290.75-0.66 290.68-1.17L290.68-1.17Q289.97-7.23 289.97-7.6 289.97-7.98 290.03-8.12 290.09-8.25 290.36-8.25L290.36-8.25Q291.04-8.25 291.61-6.3L291.61-6.3Q294.17-0.81 300.13-0.81L300.13-0.81Q302.86-0.81 304.8-2.47 306.74-4.13 306.74-6.79L306.74-6.79Q306.74-11.04 301.66-14.7L301.66-14.7Q300.22-15.72 297.51-17.55 294.8-19.38 293.19-21.22L293.19-21.22Q290.68-24.05 290.68-27.53 290.68-31.01 293.45-33.23 296.22-35.45 299.81-35.45L299.81-35.45Q301.66-35.45 303.9-34.81 306.13-34.18 307.01-33.96L307.01-33.96Z" opacity="1" transform="matrix(1,0,0,1,0,0)" fill="#000000" class="undefined-text-0" data-fill-palette-color="primary" id="text-0"></path></svg></g></svg></g></svg></g></svg></g><g><svg viewBox="0 0 79.24795882771144 63.73653252601703" height="63.73653252601703" width="79.24795882771144"><g><svg xmlns="http://www.w3.org/2000/svg" xmlns:xlink="http://www.w3.org/1999/xlink" version="1.1" x="0" y="0" viewBox="0 9.78600025177002 100.0003433227539 80.42699432373047" enable-background="new 0 0 100 100" xml:space="preserve" width="79.24795882771144" height="63.73653252601703" class="icon-icon-0" data-fill-palette-color="accent" id="icon-0"><path d="M49.942 52.994c13.552-0.488 27.103-0.977 40.653-1.465-2.527-4.177-3.159-7.831-7.989-8.461-7.229-0.94-14.458-1.883-21.688-2.826-14.023-1.827-28.05-3.654-42.075-5.48C20.101 36.792 39.724 53.361 49.942 52.994z" fill="#000000" data-fill-palette-color="accent"></path><path d="M0 9.786c4.391 7.257 26.615 23.072 32.953 23.886 17.33 2.231 34.657 4.46 51.986 6.688-3.393-5.607-4.18-9.35-10.312-10.959-8.904-2.341-17.812-4.683-26.717-7.023C31.94 18.182 15.97 13.984 0 9.786z" fill="#000000" data-fill-palette-color="accent"></path><path d="M63.108 66.207c10.413-2.219 20.826-4.439 31.241-6.66-2.028-3.346-2.034-5.359-5.827-5.189-6.158 0.273-12.314 0.549-18.471 0.822-11.343 0.506-22.686 1.014-34.028 1.518C37.298 58.064 54.94 67.947 63.108 66.207z" fill="#000000" data-fill-palette-color="accent"></path><path d="M87.682 90.213c5.725-3.719 7.262-7.721 10.519-13.807 3.651-6.824 1.257-7.844-2.821-14.596-0.417-0.688-5.842 0.232-6.453 0.904-0.745 0.818-0.248 5.455-0.294 6.496C88.315 76.211 87.998 83.213 87.682 90.213z" fill="#000000" data-fill-palette-color="accent"></path><path d="M86.35 63.447c-3.795 0.809-8.604 0.191-9.572 4.229-1.373 5.736-2.746 11.475-4.12 17.211C81.904 82.678 86.028 71.582 86.35 63.447z" fill="#000000" data-fill-palette-color="accent"></path><path d="M74.666 66.121c-9.148 1.953-8.956 4.611-12.879 13.18C68.007 78.711 73.811 71.941 74.666 66.121z" fill="#000000" data-fill-palette-color="accent"></path></svg></g></svg></g></svg></g><defs></defs></svg><rect width="395.52" height="51.907309191356894" fill="none" stroke="none" visibility="hidden"></rect></g></svg></g></svg>